<?xml version="1.0" encoding="utf-8"?>
<!-- Generator: Adobe Illustrator 16.0.0, SVG Export Plug-In . SVG Version: 6.00 Build 0)  -->
<!DOCTYPE svg PUBLIC "-//W3C//DTD SVG 1.1//EN" "http://www.w3.org/Graphics/SVG/1.1/DTD/svg11.dtd">
<svg version="1.1" id="Capa_1" xmlns="http://www.w3.org/2000/svg" xmlns:xlink="http://www.w3.org/1999/xlink" x="0px" y="0px"
	 width="800px" height="400px" viewBox="0 0 800 400" enable-background="new 0 0 800 400" xml:space="preserve">
<g>
	<g>
		<path fill="#D22627" d="M400,7.407L400,7.407c106.363,0,192.593,86.23,192.593,192.593l0,0
			c0,106.363-86.229,192.593-192.593,192.593l0,0c-106.363,0-192.593-86.229-192.593-192.593l0,0
			C207.407,93.637,293.637,7.407,400,7.407z"/>
		<path fill="#D22627" d="M400,400c-110.281,0-200-89.719-200-200S289.719,0,400,0s200,89.719,200,200S510.281,400,400,400z
			 M400,14.815c-102.111,0-185.185,83.074-185.185,185.185S297.889,385.186,400,385.186S585.186,302.111,585.186,200
			S502.111,14.815,400,14.815z"/>
	</g>
	<path fill="#FFFFFF" d="M434.859,296.297c-1.896,0-3.793-0.727-5.237-2.171l-85.17-85.171c-4.94-4.94-4.94-12.97,0-17.911
		l85.17-85.17c2.896-2.896,7.578-2.896,10.475,0c2.896,2.896,2.896,7.578,0,10.474L356.444,200l83.652,83.652
		c2.896,2.896,2.896,7.577,0,10.474C438.652,295.57,436.756,296.297,434.859,296.297z"/>
</g>
</svg>
